<svg xmlns="http://www.w3.org/2000/svg" xmlns:xlink="http://www.w3.org/1999/xlink" height="768" viewBox="0 0 1296 576" width="1728" stroke-linecap="butt" stroke-linejoin="round" xmlns:v="https://vecta.io/nano"><style><![CDATA[.B{clip-path:url(#AJ)}.C{stroke:#000}.D{fill:none}.E{stroke-width:.8}.F{stroke-linejoin:round}.G{stroke-linecap:butt}.H{stroke:#b0b0b0}.I{stroke-width:.6}.J{stroke-dasharray:0.8,1.32}.K{stroke-width:1.5}.L{stroke-linecap:square}.M{stroke:#1f77b4}.N{stroke:#ff7f0e}.O{stroke:#2ca02c}.P{stroke:#d62728}.Q{stroke:#9467bd}.R{stroke:#8c564b}.S{stroke:#e377c2}.T{stroke:#7f7f7f}.U{stroke-linejoin:miter}.V{stroke-dasharray:5.55,2.4}]]></style><g fill="#fff"><path d="M0 576h1296V0H0z"/><path d="M58.6 508.36h1167.9V17.28H58.6z"/></g><path d="M58.6 508.36V17.28" class="B D E H L"/><defs><path d="M0 0v3.5" id="A" class="C E F G"/></defs><use x="58.61" xlink:href="#A" y="508.36" class="C E"/><defs><path d="M19.188 8.297H53.61V0H7.328v8.297q5.61 5.813 15.297 15.594 9.703 9.797 12.188 12.64 4.734 5.313 6.61 9 1.89 3.688 1.89 7.25 0 5.813-4.078 9.47-4.078 3.672-10.625 3.672-4.64 0-9.797-1.61-5.14-1.61-11-4.89v9.97q5.953 2.39 11.125 3.61 5.188 1.22 9.484 1.22 11.328 0 18.063-5.672 6.734-5.656 6.734-15.125 0-4.5-1.687-8.53-1.672-4.016-6.125-9.484-1.22-1.422-7.766-8.187-6.53-6.766-18.453-18.922z" id="B" class="F G"/></defs><use xlink:href="#B" transform="matrix(.16 0 0 -.16 53.52 527.5175)"/><g class="E"><path d="M292.188 508.36V17.28" class="B D H L"/><use x="292.188" xlink:href="#A" y="508.36" class="C"/></g><defs><path d="M40.578 39.313Q47.656 37.797 51.625 33q3.984-4.78 3.984-11.812 0-10.78-7.422-16.703-7.422-5.906-21.094-5.906-4.578 0-9.437.906-4.86.906-10.03 2.72v9.516q4.094-2.39 8.97-3.61 4.89-1.22 10.22-1.22 9.266 0 14.125 3.656 4.86 3.656 4.86 10.64 0 6.453-4.516 10.078-4.516 3.64-12.562 3.64h-8.5v8.11h8.89q7.266 0 11.125 2.906 3.86 2.906 3.86 8.375 0 5.61-3.984 8.61-3.97 3.016-11.39 3.016-4.062 0-8.703-.89-4.64-.875-10.203-2.72v8.78q5.625 1.563 10.53 2.344 4.906.78 9.25.78 11.234 0 17.766-5.11 6.547-5.094 6.547-13.78 0-6.062-3.47-10.234-3.47-4.172-9.86-5.78z" id="C" class="F G"/></defs><use xlink:href="#C" transform="matrix(.16 0 0 -.16 287.098 527.5175)"/><g class="E"><path d="M525.766 508.36V17.28" class="B D H L"/><use x="525.766" xlink:href="#A" y="508.36" class="C"/></g><defs><path d="M37.797 64.313L12.89 25.39h24.906zm-2.594 8.594H47.61V25.39h10.406v-8.203H47.61V0h-9.812v17.188H4.89v9.516z" id="D" class="F G"/></defs><use xlink:href="#D" transform="matrix(.16 0 0 -.16 520.676 527.5175)"/><g class="E"><path d="M759.344 508.36V17.28" class="B D H L"/><use x="759.344" xlink:href="#A" y="508.36" class="C"/></g><defs><path d="M10.797 72.906h38.72v-8.312H19.828v-17.86q2.14.734 4.28 1.094 2.156.36 4.313.36 12.203 0 19.328-6.687 7.14-6.687 7.14-18.11 0-11.766-7.328-18.297-7.328-6.516-20.656-6.516-4.594 0-9.36.78-4.75.78-9.828 2.344v9.922q4.39-2.39 9.078-3.562 4.688-1.172 9.906-1.172 8.453 0 13.375 4.438 4.938 4.438 4.938 12.063 0 7.61-4.937 12.047-4.922 4.453-13.375 4.453-3.953 0-7.89-.875-3.922-.875-8.016-2.734z" id="E" class="F G"/></defs><use xlink:href="#E" transform="matrix(.16 0 0 -.16 754.254 527.5175)"/><g class="E"><path d="M992.922 508.36V17.28" class="B D H L"/><use x="992.922" xlink:href="#A" y="508.36" class="C"/></g><defs><path d="M33.016 40.375q-6.64 0-10.53-4.547-3.875-4.53-3.875-12.437 0-7.86 3.875-12.437 3.89-4.562 10.53-4.562 6.64 0 10.516 4.563 3.875 4.578 3.875 12.438 0 7.906-3.875 12.438-3.875 4.547-10.516 4.547zm19.578 30.922v-8.984q-3.72 1.75-7.5 2.672-3.78.938-7.5.938-9.766 0-14.922-6.594-5.14-6.594-5.875-19.922 2.875 4.25 7.22 6.516 4.36 2.266 9.578 2.266 10.984 0 17.36-6.672 6.375-6.656 6.375-18.125 0-11.234-6.64-18.03-6.64-6.78-17.672-6.78-12.656 0-19.344 9.688-6.687 9.703-6.687 28.11 0 17.28 8.203 27.563 8.203 10.28 22.016 10.28 3.72 0 7.5-.734 3.78-.734 7.89-2.187z" id="F" class="F G"/></defs><use xlink:href="#F" transform="matrix(.16 0 0 -.16 987.832 527.5175)"/><g class="E"><path d="M1226.5 508.36V17.28" class="B D H L"/><use x="1226.5" xlink:href="#A" y="508.36" class="C"/></g><defs><path d="M8.203 72.906h46.875v-4.203L28.61 0H18.313L43.22 64.594H8.203z" id="G" class="F G"/></defs><use xlink:href="#G" transform="matrix(.16 0 0 -.16 1221.41 527.5175)"/><path d="M105.326 508.36V17.28" class="B D E H J"/><defs><path d="M0 0v2" id="H" class="C F G I"/></defs><use x="105.326" xlink:href="#H" y="508.36" class="C I"/><path d="M152.04 508.36V17.28" class="B D E H J"/><use x="152.041" xlink:href="#H" y="508.36" class="C I"/><path d="M198.757 508.36V17.28" class="B D E H J"/><use x="198.757" xlink:href="#H" y="508.36" class="C I"/><path d="M245.472 508.36V17.28" class="B D E H J"/><use x="245.472" xlink:href="#H" y="508.36" class="C I"/><path d="M338.904 508.36V17.28" class="B D E H J"/><use x="338.904" xlink:href="#H" y="508.36" class="C I"/><path d="M385.62 508.36V17.28" class="B D E H J"/><use x="385.619" xlink:href="#H" y="508.36" class="C I"/><path d="M432.335 508.36V17.28" class="B D E H J"/><use x="432.335" xlink:href="#H" y="508.36" class="C I"/><path d="M479.05 508.36V17.28" class="B D E H J"/><use x="479.05" xlink:href="#H" y="508.36" class="C I"/><path d="M572.482 508.36V17.28" class="B D E H J"/><use x="572.482" xlink:href="#H" y="508.36" class="C I"/><path d="M619.197 508.36V17.28" class="B D E H J"/><use x="619.197" xlink:href="#H" y="508.36" class="C I"/><path d="M665.913 508.36V17.28" class="B D E H J"/><use x="665.913" xlink:href="#H" y="508.36" class="C I"/><path d="M712.628 508.36V17.28" class="B D E H J"/><use x="712.628" xlink:href="#H" y="508.36" class="C I"/><path d="M806.06 508.36V17.28" class="B D E H J"/><use x="806.06" xlink:href="#H" y="508.36" class="C I"/><path d="M852.775 508.36V17.28" class="B D E H J"/><use x="852.775" xlink:href="#H" y="508.36" class="C I"/><path d="M899.49 508.36V17.28" class="B D E H J"/><use x="899.491" xlink:href="#H" y="508.36" class="C I"/><path d="M946.206 508.36V17.28" class="B D E H J"/><use x="946.206" xlink:href="#H" y="508.36" class="C I"/><path d="M1039.638 508.36V17.28" class="B D E H J"/><use x="1039.638" xlink:href="#H" y="508.36" class="C I"/><path d="M1086.353 508.36V17.28" class="B D E H J"/><use x="1086.353" xlink:href="#H" y="508.36" class="C I"/><path d="M1133.07 508.36V17.28" class="B D E H J"/><use x="1133.069" xlink:href="#H" y="508.36" class="C I"/><path d="M1179.784 508.36V17.28" class="B D E H J"/><use x="1179.784" xlink:href="#H" y="508.36" class="C I"/><defs><path d="M54.5 81.11h9.22v-4.687h-5.61L29.11-2h-3.234L10.297 41.11l-6.094-2.187-1.22 3.906 13.813 4.78 12.5-34.625z" id="I" class="F G"/><path d="M50 53.078l-1.703-8.5q-3.562 1.953-7.53 2.922-3.953.984-8.14.984-7.094 0-11.172-2.422-4.062-2.406-4.062-6.562 0-4.828 9.47-7.422.734-.187 1.078-.297l2.875-.875q8.984-2.484 11.984-5.22 3-2.734 3-7.47 0-8.703-6.906-14.172-6.906-5.47-18.094-5.47-4.344 0-9.125.844Q6.89.25 1.125 2l1.75 9.28q4.938-2.547 9.72-3.86Q17.39 6.11 21.78 6.11q6.594 0 10.72 2.828 4.125 2.828 4.125 7.172 0 4.688-10.844 7.578l-4 1.016q-6.844 1.813-10.016 4.766-3.172 2.953-3.172 7.547 0 8.734 6.563 13.86Q21.734 56 33.016 56q4.438 0 8.656-.734 4.234-.72 8.328-2.187z" id="J" class="F G"/><path d="M31 75.875q-6.53-11.22-9.72-22.22Q18.11 42.672 18.11 31.39q0-11.266 3.203-22.328Q24.516-2 31-13.187h-7.812Q15.875-1.703 12.234 9.375q-3.64 11.078-3.64 22.016 0 10.89 3.61 21.922 3.625 11.047 10.984 22.563z" id="K" class="F G"/><path d="M59.516 10.406v19.578h-16.11v8.11H69.28V6.78Q63.578 2.734 56.688.656 49.813-1.422 42-1.422q-17.094 0-26.75 9.984-9.64 10-9.64 27.813 0 17.875 9.64 27.86Q24.906 74.22 42 74.22q7.125 0 13.547-1.766 6.422-1.75 11.844-5.172v-10.5q-5.47 4.64-11.625 6.984-6.156 2.344-12.937 2.344-13.39 0-20.11-7.47-6.703-7.47-6.703-22.266 0-14.75 6.703-22.22 6.72-7.47 20.11-7.47 5.22 0 9.313.906 4.11.906 7.375 2.813z" id="L" class="F G"/><path d="M56.203 29.594v-4.39H14.89q.594-9.28 5.594-14.14 5-4.86 13.938-4.86 5.172 0 10.03 1.266 4.86 1.266 9.656 3.813v-8.5Q49.266.734 44.188-.344 39.11-1.422 33.89-1.422q-13.094 0-20.734 7.61-7.64 7.625-7.64 20.625 0 13.422 7.25 21.297Q20.016 56 32.328 56q11.03 0 17.453-7.11 6.422-7.094 6.422-19.297zm-8.984 2.64q-.094 7.36-4.125 11.75-4.03 4.406-10.672 4.406-7.516 0-12.03-4.25-4.516-4.25-5.203-11.97z" id="M" class="F G"/><path d="M28.61 0L.78 72.906h10.297l23.11-61.375 23.14 61.375h10.25L39.797 0z" id="N" class="F G"/><path d="M8.016 75.875h7.813Q23.14 64.36 26.78 53.313q3.64-11.03 3.64-21.922 0-10.937-3.64-22.016-3.64-11.078-10.953-22.562H8.016Q14.5-2 17.703 9.063q3.203 11.063 3.203 22.328 0 11.28-3.203 22.266-3.203 11-9.687 22.22z" id="O" class="F G"/></defs><g transform="matrix(.2 0 0 -.2 596.655 551.085625)"><use xlink:href="#I" y=".891"/><use xlink:href="#J" x="76.221" y=".75"/><use xlink:href="#Aw" x="140.82" y=".891"/><use xlink:href="#K" x="172.607" y=".891"/><use xlink:href="#L" x="211.621" y=".891"/><use xlink:href="#M" x="289.111" y=".891"/><use xlink:href="#N" x="350.635" y=".891"/><use xlink:href="#O" x="419.043" y=".891"/><path d="M63.72 75.5v6.25h77.1V75.5h-77.1z"/></g><path d="M58.6 508.36h1167.9" class="B D E H L"/><defs><path d="M0 0h-3.5" id="P" class="C E F G"/></defs><use x="58.61" xlink:href="#P" y="508.36" class="C E"/><defs><path d="M31.78 66.406q-7.61 0-11.453-7.5-3.828-7.484-3.828-22.53 0-14.984 3.828-22.484 3.844-7.5 11.453-7.5 7.672 0 11.5 7.5 3.844 7.5 3.844 22.484 0 15.047-3.844 22.53-3.828 7.5-11.5 7.5zm0 7.813q12.266 0 18.734-9.703 6.47-9.687 6.47-28.14 0-18.406-6.47-28.11-6.47-9.687-18.734-9.687-12.25 0-18.72 9.688-6.47 9.703-6.47 28.11 0 18.453 6.47 28.14 6.47 9.703 18.72 9.703z" id="Q" class="F G"/></defs><use xlink:href="#Q" transform="matrix(.16 0 0 -.16 41.43 514.43875)"/><g class="E"><path d="M58.6 414.82h1167.9" class="B D H L"/><use x="58.61" xlink:href="#P" y="414.821" class="C"/></g><defs><path d="M12.406 8.297h16.11v55.625l-17.53-3.516v8.984l17.438 3.516h9.86V8.297h16.11V0H12.406z" id="R" class="F G"/></defs><use xlink:href="#R" transform="matrix(.16 0 0 -.16 41.43 420.899702)"/><g class="E"><path d="M58.6 321.282h1167.9" class="B D H L"/><use x="58.61" xlink:href="#P" y="321.282" class="C"/></g><use xlink:href="#B" transform="matrix(.16 0 0 -.16 41.43 327.360655)"/><g class="E"><path d="M58.6 227.743h1167.9" class="B D H L"/><use x="58.61" xlink:href="#P" y="227.743" class="C"/></g><use xlink:href="#C" transform="matrix(.16 0 0 -.16 41.43 233.821607)"/><g class="E"><path d="M58.6 134.204h1167.9" class="B D H L"/><use x="58.61" xlink:href="#P" y="134.204" class="C"/></g><use xlink:href="#D" transform="matrix(.16 0 0 -.16 41.43 140.28256)"/><g class="E"><path d="M58.6 40.665h1167.9" class="B D H L"/><use x="58.61" xlink:href="#P" y="40.665" class="C"/></g><use xlink:href="#E" transform="matrix(.16 0 0 -.16 41.43 46.743512)"/><path d="M58.6 489.652h1167.9" class="B D E H J"/><defs><path d="M0 0h-2" id="S" class="C F G I"/></defs><use x="58.61" xlink:href="#S" y="489.652" class="C I"/><path d="M58.6 470.944h1167.9" class="B D E H J"/><use x="58.61" xlink:href="#S" y="470.944" class="C I"/><path d="M58.6 452.237h1167.9" class="B D E H J"/><use x="58.61" xlink:href="#S" y="452.237" class="C I"/><path d="M58.6 433.53h1167.9" class="B D E H J"/><use x="58.61" xlink:href="#S" y="433.529" class="C I"/><path d="M58.6 396.113h1167.9" class="B D E H J"/><use x="58.61" xlink:href="#S" y="396.113" class="C I"/><path d="M58.6 377.405h1167.9" class="B D E H J"/><use x="58.61" xlink:href="#S" y="377.405" class="C I"/><path d="M58.6 358.698h1167.9" class="B D E H J"/><use x="58.61" xlink:href="#S" y="358.698" class="C I"/><path d="M58.6 340h1167.9" class="B D E H J"/><use x="58.61" xlink:href="#S" y="339.99" class="C I"/><path d="M58.6 302.574h1167.9" class="B D E H J"/><use x="58.61" xlink:href="#S" y="302.574" class="C I"/><path d="M58.6 283.866h1167.9" class="B D E H J"/><use x="58.61" xlink:href="#S" y="283.866" class="C I"/><path d="M58.6 265.158h1167.9" class="B D E H J"/><use x="58.61" xlink:href="#S" y="265.158" class="C I"/><path d="M58.6 246.45h1167.9" class="B D E H J"/><use x="58.61" xlink:href="#S" y="246.451" class="C I"/><path d="M58.6 209.035h1167.9" class="B D E H J"/><use x="58.61" xlink:href="#S" y="209.035" class="C I"/><path d="M58.6 190.327h1167.9" class="B D E H J"/><use x="58.61" xlink:href="#S" y="190.327" class="C I"/><path d="M58.6 171.62h1167.9" class="B D E H J"/><use x="58.61" xlink:href="#S" y="171.619" class="C I"/><path d="M58.6 152.912h1167.9" class="B D E H J"/><use x="58.61" xlink:href="#S" y="152.912" class="C I"/><path d="M58.6 115.496h1167.9" class="B D E H J"/><use x="58.61" xlink:href="#S" y="115.496" class="C I"/><path d="M58.6 96.788h1167.9" class="B D E H J"/><use x="58.61" xlink:href="#S" y="96.788" class="C I"/><path d="M58.6 78.08h1167.9" class="B D E H J"/><use x="58.61" xlink:href="#S" y="78.08" class="C I"/><path d="M58.6 59.373h1167.9" class="B D E H J"/><use x="58.61" xlink:href="#S" y="59.373" class="C I"/><path d="M58.6 21.957h1167.9" class="B D E H J"/><use x="58.61" xlink:href="#S" y="21.957" class="C I"/><defs><path d="M44.39 34.188q3.172-1.078 6.172-4.594 3-3.516 6.03-9.672L66.61 0H56l-9.312 18.703q-3.625 7.328-7.016 9.72-3.39 2.39-9.25 2.39h-10.75V0h-9.86v72.906h22.266q12.5 0 18.656-5.234 6.156-5.22 6.156-15.766 0-6.89-3.203-11.437-3.203-4.53-9.297-6.28zm-24.72 30.61V38.922h12.406q7.125 0 10.766 3.297 3.64 3.297 3.64 9.688 0 6.39-3.64 9.64-3.64 3.25-10.766 3.25z" id="T" class="F G"/></defs><use xlink:href="#T" transform="matrix(0 -.2 -.2 0 33.270625 269.768437)"/><g class="D K"><g class="M"><path d="M67.322 299.02h0m22.985-3.46h0m24.175 6.266h0m23.418 1.31h0m24.442 1.778h0m23.008-4.397h0m23.87.187h0m23.312-4.583h0m24.548 4.303h0m23.172-1.03h0m22.704-4.116h.934M67.322 308.52v-19.003M90.307 304.3v-17.482m24.175 23.404V293.43m23.418 17.467v-15.524m24.442 17.527v-15.954" class="B"/><path d="M185.35 308.678v-16.323m23.87 16.545v-16.374m23.312 11.548v-15.9m24.548 20.04V292.64m23.172 14.684v-15.862m23.17 12.417v-17.2" class="B"/></g><g class="N"><path d="M310.057 303.697h.093m9.88-4.397h.187m23.755 3.742h.374m21.21-2.245h.28m23.99 3.18h.14m18.836-3.647h.187m4.755 2.15h.187m22.423-1.58h.467" class="B"/><path d="M460.06 299.955h.327m-150.284 10.602v-13.72m10.02 8.848v-12.77m24.036 15.5V297.67m21.535 8.204V295.72m24.2 13.14v-9.763m19 7.855v-13.246m4.95 15.337v-13.125" class="B"/><path d="M436.586 306.152V295.63m23.638 10.084v-11.518" class="B"/></g><path d="M198.757 261.417h0m140.147 40.223h0m46.716-15.903h0m35.036 14.03h0M665.913 173.5h0m93.43 10.28h0m-560.587 96.592v-37.9m140.147 72.608V288.2m46.716 14.27v-33.484m35.036 46.276v-31.008m245.257-77.278v-67m93.43 84.396v-81.225" class="B O"/><g class="P"><path d="M105.326 285.737h0m46.714 0h0m23.36-.935h0m23.357.935h0m23.358 7.483h0m23.357 12.16h0m23.358-4.677h0m23.358.937h0m163.505-1.872h0m7.007 12.16h0m4.672-34.608h0m2.335-28.063h0m2.393-23.56h4.613m4.673 60.04h0m9.344-8.417h0m9.342-15.903h0m9.344-39.287h2.336m2.335 16.838h2.336m2.337-30.868h2.336m2.334 9.354h2.336m2.336-39.287h0m2.336-86.057h2.92m4.087.937h2.336m3.503 31.57h4.672m4.67 13.096h4.672m4.67-18.242h4.672m4.672 45.134h4.672m4.67 58.11h4.088m2.92-9.003h1.168m2.336 5.145h4.672m4.67-1.87h4.672m2.336-34.142h2.336" class="B"/><path d="M614.526 181.9h2.336m3.503-33.675h4.672m4.67 11.225h3.504m4.67 17.772h0m4.672 15.9h4.672m4.67 13.097h0m4.672-36.48h0m9.343 28.996h0m46.715-32.74h0M105.326 303v-34.506m46.714 32.086v-29.688m23.36 30.014v-32.2m23.357 32.31v-30.54m23.358 36.82v-28.134m23.357 40.707V290.9m23.358 23.85v-28.092m23.358 26.512v-23.064m163.505 20.466v-21.6m7.007 38.233V296.66m4.672-5.045v-28.592m2.335 2.387v-32.304m4.7 18.58v-51.98m6.978 100.74v-29.418m9.344 22.452v-32.32m9.342 17.866v-35.22m10.51-1.036V201.5m4.672 55.876V220.57m4.672 5.26v-35.46m4.67 46.748V197.8m3.504 4.64v-48.544m3.795-38.884V69.2m6.716 48.516v-49.34" class="B"/><path d="M545.62 144.298v-39.365m9.343 55.16V115.33m9.343 23.587v-38.892m9.344 84.8v-40.422m9.05 93.153v-29.662m5.548 22.47v-33.28m5.256 38.04v-32.5m9.343 32.746v-36.744m5.84 3.37v-38.28m7.008 37.205v-38.005m7.006 5.71v-40.76m8.76 49.986v-36.76m6.423 59.583V153.8m7.007 56.366V176.1m7.008 51.736V184.62m4.672 4.656V150.22m9.343 66.865v-36.678m46.715 7.963v-44.727" class="B"/></g><path d="M759.344 188.456h0m46.716-1.87h0m11.68-12.16h0m58.393 14.966h0m58.395-2.806h0m58.394-3.886h0m58.395 16.046h0m58.393-11.624h0m58.396 1.334h0m-408.762 22.996v-46m46.716 43.098v-43.946m11.68 30.2v-40.756m58.393 55.196V169.54m58.395 36.777v-39.462m58.394 35.07v-38.452m58.395 54.104v-37.664M1109.7 205.9v-37.535m58.396 39.568V169" class="B Q"/><g class="R"><path d="M448.685 274.512h0m48.585-4.21h2.102m2.803-9.353h2.102m2.453-27.244h3.854m2.802-11.342h2.803m2.803-31.452h4.204m4.204-33.557h2.102m1.403-91.902h2.102m2.793 25.02h2.803m2.813 43.028h2.803m2.803-5.602h2.686m2.978-4.92h3.62m3.094-5.613h2.803m4.147 14.148h4.438m4.03 43.378h1.635m2.803 51.68h2.803" class="B"/><path d="M584.86 224.703h2.803m2.804 4.21h3.504m2.803-29.932h4.204m4.205-11.927h2.803m2.802-24.787h2.803m2.103-20.346h2.803m2.803-2.572h2.803m2.802-3.975h2.803m3.504 13.33h2.803m2.803 16.838h2.803M448.685 295.668v-42.3M498.32 286v-31.373m4.906 22.737v-32.83m5.43 5.42v-32.497m6.132 21.237v-32.66m6.306 2.796v-35.834" class="B"/><path d="M528.452 178.906v-43.103m3.504-45.098V40.2m5.254 71.786V68.962m5.607 83.92v-38.76m5.548 33.418v-39.3m6.13 34.26v-39.062m6.307 33.812V97.483m7.767 53.14v-38.22m7.065 79.782V157.6m5.022 83.94v-29.933m5.606 27.988V209.8m5.957 34v-29.797m6.656 1.272v-32.6m7.708 21.22V170.2m5.616 10.366v-36.6m4.895 17.494v-39.076m5.605 36.37V119.94m5.607 35.084V115.72m6.306 55.307v-44.65m5.607 61.225v-44.124" class="B"/></g><g class="S"><path d="M431.868 278.254h0m21.956 7.95h4.204m4.672-9.822h0m2.336-61.736h2.336m3.27-109.674h1.87m2.568 75.533h2.803m4.787 71.09h3.387m4.673-14.03h4.088" class="B"/><path d="M499.138 191.263h0m-67.27 124.994V240.25m24.058 68.776v-45.643m6.774 52.073V237.3m3.504-9.1v-27.126m5.372-86.17v-19.88m4.904 94.987v-19.027m7.884 90.34v-19.475m8.41 6.432v-21.453m6.365 15.887V139.802" class="B"/></g><g class="T"><path d="M448.685 303.274h0m5.14 5.644h4.204m5.606-48.214h2.803m1.403-99.956h2.102m2.628 55.27h4.38m4.903 75.026h2.803m2.804 5.174h2.803m2.802-10.818h2.803" class="B"/><path d="M448.685 328.253v-49.958m7.24 60.85v-60.453m9.1 9.768v-55.515m3.864-34.63V123.18m5.858 123.52v-61.344m8.497 132.476v-53.578m5.605 58.12v-52.312m5.607 42.76v-54.846" class="B"/></g><g class="C"><path d="M58.6 321.282h413.43l.005-124.72H1226.5" class="B V"/><path d="M58.6 304.836l43.52.6 65.28.757 65.28.623 108.798.825 130.557.753.005-135.648 119.124 1.028 39.708.298 119.124.8 119.124.665 198.54.908 158.833.594" class="B L"/></g></g><defs><path d="M0 2.5a2.5 2.5 0 0 0 1.768-.732A2.5 2.5 0 0 0 2.5 0a2.5 2.5 0 0 0-.732-1.768A2.5 2.5 0 0 0 0-2.5a2.5 2.5 0 0 0-1.768.732A2.5 2.5 0 0 0-2.5 0a2.5 2.5 0 0 0 .732 1.768A2.5 2.5 0 0 0 0 2.5z" id="U" class="F M"/></defs><g fill="#1f77b4" class="B M"><use x="67.322" xlink:href="#U" y="299.02"/><use x="90.307" xlink:href="#U" y="295.559"/><use x="114.482" xlink:href="#U" y="301.826"/><use x="137.91" xlink:href="#U" y="303.135"/><use x="162.342" xlink:href="#U" y="304.913"/><use x="185.349" xlink:href="#U" y="300.516"/><use x="209.221" xlink:href="#U" y="300.703"/><use x="232.532" xlink:href="#U" y="296.12"/><use x="257.081" xlink:href="#U" y="300.423"/><use x="280.252" xlink:href="#U" y="299.394"/><use x="303.423" xlink:href="#U" y="295.278"/></g><defs><path d="M0 2.5a2.5 2.5 0 0 0 1.768-.732A2.5 2.5 0 0 0 2.5 0a2.5 2.5 0 0 0-.732-1.768A2.5 2.5 0 0 0 0-2.5a2.5 2.5 0 0 0-1.768.732A2.5 2.5 0 0 0-2.5 0a2.5 2.5 0 0 0 .732 1.768A2.5 2.5 0 0 0 0 2.5z" id="V" class="F N"/></defs><g fill="#ff7f0e" class="B N"><use x="310.103" xlink:href="#V" y="303.697"/><use x="320.124" xlink:href="#V" y="299.3"/><use x="344.159" xlink:href="#V" y="303.042"/><use x="365.695" xlink:href="#V" y="300.797"/><use x="389.894" xlink:href="#V" y="303.977"/><use x="408.884" xlink:href="#V" y="300.329"/><use x="413.835" xlink:href="#V" y="302.481"/><use x="436.586" xlink:href="#V" y="300.89"/><use x="460.224" xlink:href="#V" y="299.955"/></g><defs><path d="M0 2.5a2.5 2.5 0 0 0 1.768-.732A2.5 2.5 0 0 0 2.5 0a2.5 2.5 0 0 0-.732-1.768A2.5 2.5 0 0 0 0-2.5a2.5 2.5 0 0 0-1.768.732A2.5 2.5 0 0 0-2.5 0a2.5 2.5 0 0 0 .732 1.768A2.5 2.5 0 0 0 0 2.5z" id="W" class="F O"/></defs><g fill="#2ca02c" class="B O"><use x="198.757" xlink:href="#W" y="261.417"/><use x="338.904" xlink:href="#W" y="301.639"/><use x="385.619" xlink:href="#W" y="285.737"/><use x="420.656" xlink:href="#W" y="299.768"/><use x="665.913" xlink:href="#W" y="173.49"/><use x="759.344" xlink:href="#W" y="183.78"/></g><defs><path d="M0 2.5a2.5 2.5 0 0 0 1.768-.732A2.5 2.5 0 0 0 2.5 0a2.5 2.5 0 0 0-.732-1.768A2.5 2.5 0 0 0 0-2.5a2.5 2.5 0 0 0-1.768.732A2.5 2.5 0 0 0-2.5 0a2.5 2.5 0 0 0 .732 1.768A2.5 2.5 0 0 0 0 2.5z" id="X" class="F P"/></defs><g fill="#d62728" class="B P"><use x="105.326" xlink:href="#X" y="285.737"/><use x="152.041" xlink:href="#X" y="285.737"/><use x="175.399" xlink:href="#X" y="284.802"/><use x="198.757" xlink:href="#X" y="285.737"/><use x="222.115" xlink:href="#X" y="293.22"/><use x="245.472" xlink:href="#X" y="305.38"/><use x="268.83" xlink:href="#X" y="300.703"/><use x="292.188" xlink:href="#X" y="301.639"/><use x="455.693" xlink:href="#X" y="299.768"/><use x="462.7" xlink:href="#X" y="311.928"/><use x="467.372" xlink:href="#X" y="277.319"/><use x="469.707" xlink:href="#X" y="249.257"/><use x="474.408" xlink:href="#X" y="225.697"/><use x="481.386" xlink:href="#X" y="285.737"/><use x="490.729" xlink:href="#X" y="277.319"/><use x="500.072" xlink:href="#X" y="261.417"/><use x="510.583" xlink:href="#X" y="222.131"/><use x="515.255" xlink:href="#X" y="238.968"/><use x="519.927" xlink:href="#X" y="208.1"/><use x="524.598" xlink:href="#X" y="217.454"/><use x="528.102" xlink:href="#X" y="178.167"/><use x="531.897" xlink:href="#X" y="92.111"/><use x="538.613" xlink:href="#X" y="93.047"/><use x="545.62" xlink:href="#X" y="124.616"/><use x="554.963" xlink:href="#X" y="137.712"/><use x="564.306" xlink:href="#X" y="119.471"/><use x="573.649" xlink:href="#X" y="164.604"/><use x="582.701" xlink:href="#X" y="222.715"/><use x="588.248" xlink:href="#X" y="213.712"/><use x="593.504" xlink:href="#X" y="218.857"/><use x="602.847" xlink:href="#X" y="216.986"/><use x="608.686" xlink:href="#X" y="182.844"/><use x="615.694" xlink:href="#X" y="181.909"/><use x="622.701" xlink:href="#X" y="148.235"/><use x="631.46" xlink:href="#X" y="159.459"/><use x="637.883" xlink:href="#X" y="177.232"/><use x="644.891" xlink:href="#X" y="193.133"/><use x="651.898" xlink:href="#X" y="206.229"/><use x="656.57" xlink:href="#X" y="169.749"/><use x="665.913" xlink:href="#X" y="198.746"/><use x="712.628" xlink:href="#X" y="166.007"/></g><defs><path d="M0 2.5a2.5 2.5 0 0 0 1.768-.732A2.5 2.5 0 0 0 2.5 0a2.5 2.5 0 0 0-.732-1.768A2.5 2.5 0 0 0 0-2.5a2.5 2.5 0 0 0-1.768.732A2.5 2.5 0 0 0-2.5 0a2.5 2.5 0 0 0 .732 1.768A2.5 2.5 0 0 0 0 2.5z" id="Y" class="F Q"/></defs><g fill="#9467bd" class="B Q"><use x="759.344" xlink:href="#Y" y="188.456"/><use x="806.06" xlink:href="#Y" y="186.586"/><use x="817.739" xlink:href="#Y" y="174.426"/><use x="876.133" xlink:href="#Y" y="189.392"/><use x="934.528" xlink:href="#Y" y="186.586"/><use x="992.922" xlink:href="#Y" y="182.7"/><use x="1051.317" xlink:href="#Y" y="198.746"/><use x="1109.711" xlink:href="#Y" y="187.122"/><use x="1168.106" xlink:href="#Y" y="188.456"/></g><defs><path d="M0 2.5a2.5 2.5 0 0 0 1.768-.732A2.5 2.5 0 0 0 2.5 0a2.5 2.5 0 0 0-.732-1.768A2.5 2.5 0 0 0 0-2.5a2.5 2.5 0 0 0-1.768.732A2.5 2.5 0 0 0-2.5 0a2.5 2.5 0 0 0 .732 1.768A2.5 2.5 0 0 0 0 2.5z" id="Z" class="F R"/></defs><g fill="#8c564b" class="B R"><use x="448.685" xlink:href="#Z" y="274.512"/><use x="498.321" xlink:href="#Z" y="270.303"/><use x="503.226" xlink:href="#Z" y="260.949"/><use x="508.656" xlink:href="#Z" y="233.706"/><use x="514.788" xlink:href="#Z" y="222.364"/><use x="521.094" xlink:href="#Z" y="190.912"/><use x="528.452" xlink:href="#Z" y="157.355"/><use x="531.956" xlink:href="#Z" y="65.453"/><use x="537.211" xlink:href="#Z" y="90.474"/><use x="542.817" xlink:href="#Z" y="133.502"/><use x="548.365" xlink:href="#Z" y="127.89"/><use x="554.496" xlink:href="#Z" y="122.979"/><use x="560.803" xlink:href="#Z" y="117.367"/><use x="568.569" xlink:href="#Z" y="131.515"/><use x="575.635" xlink:href="#Z" y="174.893"/><use x="580.657" xlink:href="#Z" y="226.574"/><use x="586.263" xlink:href="#Z" y="224.703"/><use x="592.219" xlink:href="#Z" y="228.912"/><use x="598.876" xlink:href="#Z" y="198.98"/><use x="606.584" xlink:href="#Z" y="187.053"/><use x="612.19" xlink:href="#Z" y="162.266"/><use x="617.095" xlink:href="#Z" y="141.921"/><use x="622.701" xlink:href="#Z" y="139.348"/><use x="628.307" xlink:href="#Z" y="135.373"/><use x="634.613" xlink:href="#Z" y="148.702"/><use x="640.219" xlink:href="#Z" y="165.539"/></g><defs><path d="M0 2.5a2.5 2.5 0 0 0 1.768-.732A2.5 2.5 0 0 0 2.5 0a2.5 2.5 0 0 0-.732-1.768A2.5 2.5 0 0 0 0-2.5a2.5 2.5 0 0 0-1.768.732A2.5 2.5 0 0 0-2.5 0a2.5 2.5 0 0 0 .732 1.768A2.5 2.5 0 0 0 0 2.5z" id="a" class="F S"/></defs><g fill="#e377c2" class="B S"><use x="431.868" xlink:href="#a" y="278.254"/><use x="455.926" xlink:href="#a" y="286.205"/><use x="462.7" xlink:href="#a" y="276.383"/><use x="466.204" xlink:href="#a" y="214.647"/><use x="471.576" xlink:href="#a" y="104.973"/><use x="476.481" xlink:href="#a" y="180.506"/><use x="484.364" xlink:href="#a" y="251.595"/><use x="492.773" xlink:href="#a" y="237.564"/><use x="499.138" xlink:href="#a" y="191.263"/></g><defs><path d="M0 2.5a2.5 2.5 0 0 0 1.768-.732A2.5 2.5 0 0 0 2.5 0a2.5 2.5 0 0 0-.732-1.768A2.5 2.5 0 0 0 0-2.5a2.5 2.5 0 0 0-1.768.732A2.5 2.5 0 0 0-2.5 0a2.5 2.5 0 0 0 .732 1.768A2.5 2.5 0 0 0 0 2.5z" id="b" class="F T"/></defs><g fill="#7f7f7f" class="B T"><use x="448.685" xlink:href="#b" y="303.274"/><use x="455.926" xlink:href="#b" y="308.918"/><use x="465.036" xlink:href="#b" y="260.704"/><use x="468.89" xlink:href="#b" y="160.748"/><use x="474.758" xlink:href="#b" y="216.018"/><use x="483.255" xlink:href="#b" y="291.044"/><use x="488.861" xlink:href="#b" y="296.218"/><use x="494.467" xlink:href="#b" y="285.399"/></g><g class="C D E L U"><path d="M58.6 508.36V17.28m1167.9 491.08V17.28"/><path d="M58.6 508.36h1167.9M58.6 17.28h1167.9"/></g><path d="M68.4 233.974h203.267q2.8 0 2.8-2.8V27.08q0-2.8-2.8-2.8H68.4q-2.8 0-2.8 2.8v204.094q0 2.8 2.8 2.8z" fill="#fff" opacity=".8" stroke="#ccc" class="U"/><path d="M71.2 35.618h28" class="C D K V"/><defs><path d="M9.813 72.906h46.094v-8.312H19.672V43.016h34.72V34.72h-34.72V8.297h37.11V0H9.813z" id="c" class="F G"/><path d="M3.328 72.906h9.953L28.61 11.28l15.28 61.625h11.094L70.313 11.28l15.28 61.625H95.61L77.297 0H64.89L49.516 63.28 33.984 0H21.578z" id="d" class="F G"/><path d="M18.11 8.203v-29h-9.03v75.484h9.03V46.39q2.844 4.875 7.156 7.234Q29.594 56 35.594 56q9.97 0 16.188-7.906 6.234-7.906 6.234-20.797 0-12.89-6.234-20.812-6.22-7.906-16.187-7.906-6 0-10.328 2.375-4.312 2.375-7.156 7.25zm30.578 19.094q0 9.906-4.078 15.547-4.078 5.64-11.203 5.64-7.14 0-11.22-5.64-4.078-5.64-4.078-15.547 0-9.906 4.078-15.547 4.078-5.64 11.22-5.64 7.125 0 11.203 5.64 4.078 5.64 4.078 15.547z" id="e" class="F G"/><path d="M41.11 46.297q-1.516.875-3.297 1.28Q36.03 48 33.89 48q-7.625 0-11.703-4.953-4.078-4.953-4.078-14.234V0h-9.03v54.688h9.03v-8.5q2.844 4.984 7.375 7.39Q30.03 56 36.53 56q.922 0 2.047-.125 1.125-.11 2.484-.36z" id="f" class="F G"/><path d="M45.406 46.39v29.594h8.984V0h-8.984v8.203Q42.578 3.328 38.25.953q-4.312-2.375-10.375-2.375-9.906 0-16.14 7.906-6.22 7.922-6.22 20.813 0 12.89 6.22 20.797Q17.97 56 27.875 56q6.063 0 10.375-2.375 4.328-2.36 7.156-7.234zm-30.61-19.094q0-9.906 4.078-15.547 4.078-5.64 11.203-5.64 7.125 0 11.22 5.64 4.11 5.64 4.11 15.547 0 9.906-4.11 15.547-4.094 5.64-11.22 5.64-7.125 0-11.203-5.64-4.078-5.64-4.078-15.547z" id="g" class="F G"/><path d="M9.422 54.688h8.984V0H9.422zm0 21.297h8.984v-11.39H9.422z" id="h" class="F G"/><path d="M48.78 52.594v-8.406q-3.812 2.11-7.64 3.156-3.828 1.047-7.734 1.047-8.75 0-13.594-5.547-4.828-5.53-4.828-15.547 0-10.016 4.828-15.562 4.844-5.53 13.594-5.53 3.906 0 7.734 1.047 3.828 1.047 7.64 3.156V2.094Q45.016.344 40.984-.53q-4.016-.89-8.562-.89-12.36 0-19.64 7.766-7.266 7.766-7.266 20.953 0 13.375 7.344 21.03Q20.22 56 33.016 56q4.14 0 8.094-.86 3.953-.844 7.672-2.547z" id="i" class="F G"/><path d="M18.313 70.22v-15.53h18.5v-6.984h-18.5V18.016q0-6.687 1.828-8.594 1.828-1.906 7.453-1.906h9.22V0h-9.22q-10.406 0-14.36 3.875-3.953 3.89-3.953 14.14v29.688H2.688v6.984H9.28v15.53z" id="j" class="F G"/><path d="M30.61 48.39q-7.22 0-11.422-5.64-4.203-5.64-4.203-15.453 0-9.812 4.172-15.453 4.188-5.64 11.453-5.64 7.188 0 11.375 5.656 4.203 5.672 4.203 15.438 0 9.72-4.203 15.406-4.187 5.688-11.375 5.688zm0 7.61q11.72 0 18.406-7.625 6.703-7.61 6.703-21.078 0-13.422-6.703-21.078-6.687-7.64-18.406-7.64-11.766 0-18.437 7.64-6.656 7.656-6.656 21.078 0 13.47 6.656 21.078Q18.844 56 30.61 56z" id="k" class="F G"/><path d="M54.89 33.016V0h-8.984v32.72q0 7.766-3.03 11.61-3.03 3.86-9.078 3.86-7.28 0-11.484-4.64-4.203-4.625-4.203-12.64V0h-9.03v54.688h9.03v-8.5q3.234 4.938 7.594 7.375Q30.078 56 35.797 56q9.422 0 14.25-5.828 4.844-5.828 4.844-17.156z" id="l" class="F G"/></defs><g transform="matrix(.14 0 0 -.14 110.41 40.517812)"><use xlink:href="#c"/><use x="63.184" xlink:href="#d"/><use x="162.061" xlink:href="#Aw"/><use x="193.848" xlink:href="#e"/><use x="257.324" xlink:href="#f"/><use x="296.188" xlink:href="#M"/><use x="357.711" xlink:href="#g"/><use x="421.188" xlink:href="#h"/><use x="448.971" xlink:href="#i"/><use x="503.951" xlink:href="#j"/><use x="543.16" xlink:href="#h"/><use x="570.943" xlink:href="#k"/><use x="632.125" xlink:href="#l"/></g><path d="M71.2 56.167h28" class="C D K L"/><defs><path d="M46 62.703V35.5h27.188v-8.297H46V0h-8.203v27.203H10.594V35.5h27.203v27.203z" id="m" class="F G"/><path d="M39.406 66.22q-10.75 0-17.078-8.016-6.312-8-6.312-21.828 0-13.766 6.313-21.78 6.328-8 17.078-8 10.734 0 17.016 8 6.28 8.016 6.28 21.78 0 13.828-6.28 21.828-6.28 8.016-17.016 8.016zM53.22 1.313l13-14.203H54.297L43.5-1.22q-1.61-.094-2.47-.14-.844-.062-1.625-.062-15.375 0-24.594 10.28Q5.61 19.14 5.61 36.375q0 17.28 9.203 27.563 9.22 10.28 24.594 10.28 15.328 0 24.5-10.28 9.188-10.28 9.188-27.562 0-12.687-5.11-21.734Q62.89 5.61 53.22 1.313z" id="n" class="F G"/><path d="M64.406 67.28V56.89q-4.984 4.64-10.625 6.922-5.64 2.297-11.984 2.297-12.5 0-19.14-7.64-6.64-7.64-6.64-22.094 0-14.406 6.64-22.047 6.64-7.64 19.14-7.64 6.344 0 11.984 2.297 5.64 2.297 10.625 6.938V5.61q-5.172-3.516-10.97-5.28-5.78-1.75-12.22-1.75-16.562 0-26.094 10.125Q5.61 18.844 5.61 36.375q0 17.578 9.516 27.703 9.53 10.14 26.094 10.14 6.53 0 12.313-1.734 5.797-1.734 10.875-5.203z" id="o" class="F G"/><path d="M19.672 64.797V8.11h11.922q15.094 0 22.094 6.828 7 6.844 7 21.594 0 14.64-7 21.453-7 6.813-22.094 6.813zm-9.86 8.11h20.266q21.188 0 31.094-8.812 9.922-8.812 9.922-27.562 0-18.86-9.97-27.703Q51.172 0 30.078 0H9.813z" id="p" class="F G"/></defs><g transform="matrix(.14 0 0 -.14 110.41 61.067188)"><use xlink:href="#c"/><use x="63.184" xlink:href="#d"/><use x="162.061" xlink:href="#Aw"/><use x="193.848" xlink:href="#m"/><use x="277.637" xlink:href="#Aw"/><use x="309.424" xlink:href="#e"/><use x="372.9" xlink:href="#n"/><use x="451.611" xlink:href="#o"/><use x="521.436" xlink:href="#p"/><use x="598.438" xlink:href="#Aw"/><use x="630.225" xlink:href="#e"/><use x="693.701" xlink:href="#f"/><use x="732.564" xlink:href="#M"/><use x="794.088" xlink:href="#g"/><use x="857.564" xlink:href="#h"/><use x="885.348" xlink:href="#i"/><use x="940.328" xlink:href="#j"/><use x="979.537" xlink:href="#h"/><use x="1007.32" xlink:href="#k"/><use x="1068.502" xlink:href="#l"/></g><g class="D K M"><path d="M78.2 76.717h14"/><path d="M85.2 83.717v-14"/></g><use x="85.21" xlink:href="#U" y="76.717" fill="#1f77b4" class="M"/><defs><path d="M34.188 63.188l-13.39-36.28H47.61zm-5.578 9.72h11.188L67.578 0h-10.25l-6.64 18.703h-32.86L11.188 0H.78z" id="q" class="F G"/><path d="M9.813 72.906h13.28l32.328-60.984v60.984h9.563V0h-13.28L19.39 60.984V0H9.813z" id="r" class="F G"/><path d="M53.516 70.516V60.89q-5.61 2.688-10.594 4-4.984 1.328-9.625 1.328-8.047 0-12.422-3.125-4.375-3.125-4.375-8.89 0-4.844 2.906-7.312 2.906-2.453 11.016-3.97l5.953-1.22q11.03-2.11 16.28-7.406 5.25-5.297 5.25-14.172 0-10.61-7.11-16.078-7.094-5.47-20.812-5.47-5.172 0-11.016 1.172Q13.14.922 6.89 3.22v10.156q6-3.36 11.766-5.078 5.766-1.703 11.328-1.703 8.438 0 13.03 3.313 4.594 3.328 4.594 9.484 0 5.36-3.297 8.39-3.297 3.03-10.812 4.547L27.484 33.5q-11.03 2.188-15.97 6.875-4.922 4.688-4.922 13.047 0 9.672 6.813 15.234 6.813 5.563 18.766 5.563 5.14 0 10.453-.937 5.328-.922 10.89-2.766z" id="s" class="F G"/><path d="M9.813 72.906h9.86v-29.89h35.844v29.89h9.86V0h-9.86v34.72H19.672V0h-9.86z" id="t" class="F G"/><path d="M9.813 72.906h9.86V0h-9.86z" id="u" class="F G"/></defs><g transform="matrix(.14 0 0 -.14 110.41 81.616562)"><use xlink:href="#q"/><use x="68.408" xlink:href="#r"/><use x="143.213" xlink:href="#q"/><use x="211.621" xlink:href="#s"/><use x="275.098" xlink:href="#t"/><use x="350.293" xlink:href="#u"/><use x="379.785" xlink:href="#r"/><use x="454.59" xlink:href="#Aw"/><use x="486.377" xlink:href="#R"/><use x="550" xlink:href="#G"/><use x="613.623" xlink:href="#q"/></g><g class="D K N"><path d="M78.2 97.266h14"/><path d="M85.2 104.266v-14"/></g><use x="85.21" xlink:href="#V" y="97.266" fill="#ff7f0e" class="N"/><defs><path d="M10.984 1.516V10.5q3.72-1.766 7.516-2.687 3.813-.922 7.484-.922 9.766 0 14.906 6.563 5.156 6.563 5.89 19.953-2.828-4.203-7.187-6.453-4.344-2.25-9.61-2.25-10.937 0-17.312 6.61-6.375 6.625-6.375 18.11 0 11.22 6.64 18 6.64 6.797 17.672 6.797 12.656 0 19.313-9.703 6.672-9.687 6.672-28.14 0-17.234-8.187-27.516-8.172-10.28-21.984-10.28-3.72 0-7.53.734-3.797.734-7.906 2.203zM30.61 32.422q6.64 0 10.516 4.53 3.89 4.547 3.89 12.47 0 7.86-3.89 12.422-3.875 4.563-10.516 4.563-6.64 0-10.516-4.562-3.875-4.562-3.875-12.422 0-7.922 3.875-12.47 3.875-4.53 10.516-4.53z" id="v" class="F G"/></defs><g transform="matrix(.14 0 0 -.14 110.41 102.165937)"><use xlink:href="#q"/><use x="68.408" xlink:href="#r"/><use x="143.213" xlink:href="#q"/><use x="211.621" xlink:href="#s"/><use x="275.098" xlink:href="#t"/><use x="350.293" xlink:href="#u"/><use x="379.785" xlink:href="#r"/><use x="454.59" xlink:href="#Aw"/><use x="486.377" xlink:href="#R"/><use x="550" xlink:href="#v"/></g><g class="D K O"><path d="M78.2 117.815h14"/><path d="M85.2 124.815v-14"/></g><use x="85.21" xlink:href="#W" y="117.815" fill="#2ca02c" class="O"/><defs><path d="M19.672 34.813V8.11H35.5q7.953 0 11.78 3.297 3.844 3.297 3.844 10.078 0 6.844-3.844 10.078-3.828 3.25-11.78 3.25zm0 29.984v-21.97h14.61q7.22 0 10.75 2.703 3.547 2.72 3.547 8.28 0 5.516-3.547 8.25-3.53 2.734-10.75 2.734zm-9.86 8.11h25.203q11.28 0 17.375-4.687Q58.5 63.53 58.5 54.89q0-6.703-3.125-10.656-3.125-3.953-9.187-4.922 7.28-1.562 11.313-6.53 4.03-4.953 4.03-12.375 0-9.766-6.64-15.094Q48.25 0 35.984 0H9.813z" id="w" class="F G"/></defs><g transform="matrix(.14 0 0 -.14 110.41 122.715312)"><use xlink:href="#w"/><use x="68.604" xlink:href="#q"/><use x="137.012" xlink:href="#u"/><use x="166.504" xlink:href="#Aw"/><use x="198.291" xlink:href="#Q"/><use x="261.914" xlink:href="#Q"/><use x="325.537" xlink:href="#o"/></g><g class="D K P"><path d="M78.2 138.365h14"/><path d="M85.2 145.365v-14"/></g><use x="85.21" xlink:href="#X" y="138.365" fill="#d62728" class="P"/><g transform="matrix(.14 0 0 -.14 110.41 143.264687)"><use xlink:href="#w"/><use x="68.604" xlink:href="#q"/><use x="137.012" xlink:href="#u"/><use x="166.504" xlink:href="#Aw"/><use x="198.291" xlink:href="#Q"/><use x="261.914" xlink:href="#R"/></g><g class="D K Q"><path d="M78.2 158.914h14"/><path d="M85.2 165.914v-14"/></g><use x="85.21" xlink:href="#Y" y="158.914" fill="#9467bd" class="Q"/><g transform="matrix(.14 0 0 -.14 110.41 163.814062)"><use xlink:href="#c"/><use x="63.184" xlink:href="#p"/><use x="140.186" xlink:href="#d"/><use x="233.563" xlink:href="#q"/><use x="301.971" xlink:href="#T"/><use x="371.453" xlink:href="#p"/><use x="448.455" xlink:href="#s"/><use x="511.932" xlink:href="#Aw"/><use x="543.719" xlink:href="#v"/><use x="607.342" xlink:href="#Q"/></g><g class="D K R"><path d="M78.2 179.463h14"/><path d="M85.2 186.463v-14"/></g><use x="85.21" xlink:href="#Z" y="179.463" fill="#8c564b" class="R"/><defs><path d="M39.406 66.22q-10.75 0-17.078-8.016-6.312-8-6.312-21.828 0-13.766 6.313-21.78 6.328-8 17.078-8 10.734 0 17.016 8 6.28 8.016 6.28 21.78 0 13.828-6.28 21.828-6.28 8.016-17.016 8.016zm0 8q15.328 0 24.5-10.28 9.188-10.28 9.188-27.562 0-17.234-9.187-27.516-9.172-10.28-24.5-10.28-15.375 0-24.594 10.25Q5.61 19.094 5.61 36.375q0 17.28 9.203 27.563 9.22 10.28 24.594 10.28z" id="x" class="F G"/><path d="M-.297 72.906h61.672v-8.312H35.5V0h-9.906v64.594H-.297z" id="y" class="F G"/><path d="M9.813 72.906h9.86V8.297h35.5V0H9.813z" id="z" class="F G"/><path d="M31.78 34.625q-7.03 0-11.062-3.766-4.016-3.766-4.016-10.344 0-6.594 4.016-10.36Q24.75 6.39 31.78 6.39q7.03 0 11.078 3.78 4.063 3.797 4.063 10.344 0 6.578-4.03 10.344-4.016 3.766-11.11 3.766zm-9.86 4.188q-6.344 1.563-9.89 5.906-3.53 4.36-3.53 10.61 0 8.734 6.22 13.813 6.234 5.078 17.063 5.078 10.89 0 17.094-5.078 6.203-5.078 6.203-13.812 0-6.25-3.547-10.61-3.53-4.344-9.828-5.906 7.125-1.656 11.094-6.5 3.984-4.828 3.984-11.797 0-10.61-6.47-16.28-6.47-5.656-18.53-5.656-12.047 0-18.53 5.656-6.47 5.672-6.47 16.28 0 6.97 4 11.797 4.016 4.844 11.14 6.5zm-3.61 15.578q0-5.656 3.53-8.828 3.547-3.172 9.938-3.172 6.36 0 9.938 3.172 3.594 3.172 3.594 8.828 0 5.672-3.594 8.844-3.578 3.172-9.937 3.172-6.39 0-9.937-3.172-3.53-3.172-3.53-8.844z" id="AA" class="F G"/></defs><g transform="matrix(.14 0 0 -.14 110.41 184.363438)"><use xlink:href="#x"/><use x="78.711" xlink:href="#s"/><use x="142.188" xlink:href="#y"/><use x="203.271" xlink:href="#c"/><use x="266.455" xlink:href="#T"/><use x="335.938" xlink:href="#t"/><use x="411.133" xlink:href="#c"/><use x="474.316" xlink:href="#z"/><use x="530.029" xlink:href="#p"/><use x="607.031" xlink:href="#Aw"/><use x="638.818" xlink:href="#AA"/><use x="702.441" xlink:href="#F"/></g><g class="D K S"><path d="M78.2 200.013h14"/><path d="M85.2 207.013v-14"/></g><use x="85.21" xlink:href="#a" y="200.013" fill="#e377c2" class="S"/><defs><path d="M19.672 64.797v-27.39h12.406q6.89 0 10.64 3.563 3.766 3.563 3.766 10.156 0 6.547-3.766 10.11-3.75 3.563-10.64 3.563zm-9.86 8.11h22.266q12.266 0 18.53-5.547 6.28-5.547 6.28-16.234 0-10.797-6.28-16.312-6.266-5.516-18.53-5.516H19.672V0h-9.86z" id="AB" class="F G"/></defs><g transform="matrix(.14 0 0 -.14 110.41 204.912812)"><use xlink:href="#T"/><use x="65.482" xlink:href="#q"/><use x="133.891" xlink:href="#AB"/><use x="194.193" xlink:href="#u"/><use x="223.686" xlink:href="#p"/><use x="300.688" xlink:href="#u"/><use x="330.18" xlink:href="#s"/><use x="393.656" xlink:href="#Aw"/><use x="425.443" xlink:href="#G"/><use x="489.066" xlink:href="#G"/></g><g class="D K T"><path d="M78.2 220.562h14"/><path d="M85.2 227.562v-14"/></g><use x="85.21" xlink:href="#b" y="220.562" fill="#7f7f7f" class="T"/><g transform="matrix(.14 0 0 -.14 110.41 225.462188)"><use xlink:href="#s"/><use x="63.477" xlink:href="#o"/><use x="133.301" xlink:href="#t"/><use x="208.496" xlink:href="#u"/><use x="237.988" xlink:href="#r"/><use x="312.793" xlink:href="#p"/><use x="389.795" xlink:href="#z"/><use x="445.508" xlink:href="#c"/><use x="508.691" xlink:href="#T"/><use x="578.174" xlink:href="#Aw"/><use x="609.961" xlink:href="#G"/><use x="673.584" xlink:href="#v"/></g><defs><path d="M0 0h3.5" id="AC" class="C E F G"/></defs><use x="1226.5" xlink:href="#AC" y="508.36" class="C E"/><use xlink:href="#Q" transform="matrix(.16 0 0 -.16 1233.5 514.43875)"/><use x="1226.5" xlink:href="#AC" y="414.821" class="C E"/><use xlink:href="#B" transform="matrix(.16 0 0 -.16 1233.5 420.899702)"/><use x="1226.5" xlink:href="#AC" y="321.282" class="C E"/><use xlink:href="#D" transform="matrix(.16 0 0 -.16 1233.5 327.360655)"/><use x="1226.5" xlink:href="#AC" y="227.743" class="C E"/><use xlink:href="#F" transform="matrix(.16 0 0 -.16 1233.5 233.821607)"/><use x="1226.5" xlink:href="#AC" y="134.204" class="C E"/><use xlink:href="#AA" transform="matrix(.16 0 0 -.16 1233.5 140.28256)"/><use x="1226.5" xlink:href="#AC" y="40.665" class="C E"/><g transform="matrix(.16 0 0 -.16 1233.5 46.743512)"><use xlink:href="#R"/><use x="63.623" xlink:href="#Q"/></g><defs><path d="M34.672 47.563q-7.422 0-12.453-5.375-5.328-5.61-7.078-14.89-1.953-9.812 1.172-15.484 3.078-5.61 10.344-5.61 7.188 0 12.453 5.656 5.328 5.672 7.234 15.438 1.703 8.938-1.328 14.89-2.828 5.375-10.344 5.375zm1.406 7.172l29.844-.047-1.766-8.984H54.11q3.797-7.61 1.75-18.406Q53.22 13.875 45.063 6.25 36.86-1.422 25.14-1.422q-11.766 0-16.937 7.672-5.172 7.625-2.53 21.047Q8.25 40.766 16.406 48.39q6.78 6.344 19.672 6.344z" id="AD" class="F G"/><path d="M48.688 27.297q0 9.906-4.078 15.547-4.078 5.64-11.203 5.64-7.14 0-11.22-5.64-4.078-5.64-4.078-15.547 0-9.906 4.078-15.547 4.078-5.64 11.22-5.64 7.125 0 11.203 5.64 4.078 5.64 4.078 15.547zM18.11 46.39q2.844 4.875 7.156 7.234Q29.594 56 35.594 56q9.97 0 16.188-7.906 6.234-7.906 6.234-20.797 0-12.89-6.234-20.812-6.22-7.906-16.187-7.906-6 0-10.328 2.375-4.312 2.375-7.156 7.25V0h-9.03v75.984h9.03z" id="AE" class="F G"/></defs><g transform="matrix(0 -.2 -.2 0 1273.056875 292.92)"><use xlink:href="#AD" y=".016"/><use xlink:href="#Aw" x="63.379" y=".016"/><use xlink:href="#K" x="95.166" y=".016"/><use xlink:href="#l" x="134.18" y=".016"/><use xlink:href="#AE" x="197.559" y=".016"/><use xlink:href="#O" x="261.035" y=".016"/></g><g class="D L"><path d="M421.506 508.36l.806-21.177.806-8.673.806-6.588 1.612-10.294 1.612-8.2 1.612-6.947 1.612-6.084 1.612-5.44 2.417-7.238 2.417-6.384 2.417-5.715 2.417-5.17 2.417-4.715 2.417-4.327 3.223-5.253 3.223-4.746 3.223-4.312 3.223-3.933 3.223-3.6 3.223-3.303 3.223-3.037 4.03-3.46 4.03-3.128 4.03-2.83 4.03-2.563 4.03-2.32 4.835-2.498 4.835-2.215 4.835-1.96 4.835-1.73 5.64-1.757 5.64-1.503 5.64-1.274 6.446-1.206 6.446-.966 6.446-.752 7.252-.618 7.252-.403 8.058-.224 8.864-.008 8.864.21 9.67.443 10.475.698 11.28.966 12.893 1.33 14.504 1.734 16.116 2.157 18.533 2.708 22.562 3.53 29.815 4.9 132.15 22.002 35.455 5.534 33.844 5.06 33.038 4.72 33.038 4.5 33.844 4.383 33.844 4.16 34.65 4.035 35.455 3.905 36.26 3.772 37.873 3.713 16.116 1.513" class="B K M"/><g class="C E U"><path d="M58.6 508.36V17.28m1167.9 491.08V17.28"/><path d="M58.6 508.36h1167.9M58.6 17.28h1167.9"/></g></g><path d="M1029.38 53.6h185.92q3.2 0 3.2-3.2V28.48q0-3.2-3.2-3.2h-185.92q-3.2 0-3.2 3.2V50.4q0 3.2 3.2 3.2z" fill="#fff" opacity=".8" stroke="#ccc" class="U"/><path d="M1032.58 38.273h32" class="D K L M"/><defs><path d="M48.094 32.234q.156.78.22 1.61.078.828.078 1.656 0 5.953-3.5 9.422-3.484 3.47-9.484 3.47-6.687 0-11.828-4.234-5.125-4.22-7.75-11.984zm7.813-7.03H14.11q-.297-1.86-.39-2.937-.094-1.078-.094-1.86 0-6.78 4.172-10.5 4.172-3.703 11.797-3.703 5.86 0 11.078 1.313 5.234 1.328 9.72 3.86l-1.703-8.89q-4.844-1.953-10-2.922-5.14-.984-10.47-.984-11.375 0-17.5 5.438-6.125 5.453-6.125 15.47 0 8.547 3.047 15.89 3.047 7.344 8.97 13.11 3.797 3.61 9.047 5.563Q30.906 56 36.813 56q9.28 0 14.766-5.562 5.5-5.562 5.5-14.937 0-2.25-.297-4.812-.28-2.562-.875-5.484z" id="AF" class="F G"/><path d="M10.594 35.5h62.594v-8.297H10.594z" id="AG" class="F G"/><path d="M78.906 33.547v-4.39L59.72 9.97l-5.86 5.86 11.375 11.375H5.72V35.5h59.516L53.86 46.875l5.86 5.86z" id="AH" class="F G"/><path d="M32.86 9.97q1.328-2.344 6.594-2.344h4.297L42.28 0h-5.36Q28.125 0 25 4.688q-3.078 4.78-1.03 15.14L29 45.703H8.453l1.75 8.984H60.64l-1.75-8.984H38.188L33.016 19.28q-1.375-7.078-.156-9.312z" id="AI" class="F G"/></defs><g transform="matrix(.16 0 0 -.16 1077.38 43.8725)"><use xlink:href="#AD" y=".827"/><use xlink:href="#K" x="63.379" y=".827"/><use xlink:href="#AF" x="102.393" y=".827"/><use transform="matrix(.7 0 0 .7 182.203607 39.107812)" xlink:href="#m"/><use xlink:href="#AF" x="257.228" y=".827"/><use transform="matrix(.7 0 0 .7 337.039049 39.107812)" xlink:href="#AG"/><use xlink:href="#AH" x="412.063" y=".827"/><use xlink:href="#AI" x="495.853" y=".827"/><use transform="matrix(.7 0 0 .7 574.161445 39.107812)" xlink:href="#m"/><use xlink:href="#AI" x="649.186" y=".827"/><use transform="matrix(.7 0 0 .7 727.494779 39.107812)" xlink:href="#AG"/><use xlink:href="#O" x="802.519" y=".827"/></g><defs><clipPath id="AJ"><path d="M58.6 17.28h1167.9v491.08H58.6z" class="F G"/></clipPath></defs></svg>